REM MD5 39174a1a74fc1b8023b6e4c15653827a
FILE "Break Point (Japan).bin" BINARY
  TRACK 01 MODE2/2352
    INDEX 01 00:00:00
  TRACK 02 AUDIO
    INDEX 00 01:13:00
    INDEX 01 01:15:00
  TRACK 03 AUDIO
    INDEX 00 03:24:22
    INDEX 01 03:26:22
  TRACK 04 AUDIO
    INDEX 00 05:34:59
    INDEX 01 05:36:59
  TRACK 05 AUDIO
    INDEX 00 07:45:63
    INDEX 01 07:47:63
  TRACK 06 AUDIO
    INDEX 00 09:56:53
    INDEX 01 09:58:53
REM LEADOUT 13:36:09
